<mxfile host="app.diagrams.net" modified="2023-09-21T00:11:07.447Z" agent="Mozilla/5.0 (Windows NT 10.0; Win64; x64) AppleWebKit/537.36 (KHTML, like Gecko) Chrome/116.0.0.0 Safari/537.36" etag="GPlNJTzRO1izDA2DnjVW" version="21.6.8" type="device">
  <diagram name="Page-1" id="w4qUZl7nRic9xNgaCiDs">
    <mxGraphModel dx="1050" dy="542" grid="1" gridSize="10" guides="1" tooltips="1" connect="1" arrows="1" fold="1" page="1" pageScale="1" pageWidth="827" pageHeight="1169" math="0" shadow="0">
      <root>
        <mxCell id="0" />
        <mxCell id="1" parent="0" />
        <mxCell id="v_9pLLNJIDL04cYkA-yU-37" value="" style="rounded=1;whiteSpace=wrap;html=1;arcSize=7;strokeWidth=2;fillColor=none;" vertex="1" parent="1">
          <mxGeometry x="230" y="230" width="350" height="411" as="geometry" />
        </mxCell>
        <mxCell id="v_9pLLNJIDL04cYkA-yU-42" value="" style="rounded=1;whiteSpace=wrap;html=1;fontStyle=0;fillColor=none;strokeWidth=2;" vertex="1" parent="1">
          <mxGeometry x="258.13" y="460" width="291.87" height="150" as="geometry" />
        </mxCell>
        <mxCell id="v_9pLLNJIDL04cYkA-yU-39" value="&lt;b&gt;Base de Datos&lt;/b&gt;&lt;br&gt;SQLite" style="rounded=1;whiteSpace=wrap;html=1;strokeWidth=2;fillColor=none;" vertex="1" parent="1">
          <mxGeometry x="280" y="524.5" width="120" height="60" as="geometry" />
        </mxCell>
        <mxCell id="v_9pLLNJIDL04cYkA-yU-40" value="Comunicación USB - Base&lt;br&gt;&lt;span style=&quot;font-weight: normal;&quot;&gt;UART&lt;/span&gt;" style="rounded=1;whiteSpace=wrap;html=1;fillColor=none;strokeWidth=2;fontStyle=1" vertex="1" parent="1">
          <mxGeometry x="420" y="517.25" width="110" height="74.5" as="geometry" />
        </mxCell>
        <mxCell id="v_9pLLNJIDL04cYkA-yU-44" value="&lt;font style=&quot;font-size: 13px;&quot;&gt;&lt;b&gt;Backend&lt;/b&gt;&lt;br&gt;Python&lt;br&gt;&lt;/font&gt;" style="text;html=1;strokeColor=none;fillColor=none;align=center;verticalAlign=middle;whiteSpace=wrap;rounded=0;" vertex="1" parent="1">
          <mxGeometry x="375" y="475" width="60" height="30" as="geometry" />
        </mxCell>
        <mxCell id="v_9pLLNJIDL04cYkA-yU-50" value="" style="group" vertex="1" connectable="0" parent="1">
          <mxGeometry x="258.13" y="270" width="291.87" height="145" as="geometry" />
        </mxCell>
        <mxCell id="v_9pLLNJIDL04cYkA-yU-51" value="" style="group" vertex="1" connectable="0" parent="v_9pLLNJIDL04cYkA-yU-50">
          <mxGeometry y="20" width="291.87" height="145" as="geometry" />
        </mxCell>
        <mxCell id="v_9pLLNJIDL04cYkA-yU-47" value="" style="rounded=1;whiteSpace=wrap;html=1;fillColor=none;strokeWidth=2;" vertex="1" parent="v_9pLLNJIDL04cYkA-yU-51">
          <mxGeometry width="291.87" height="145" as="geometry" />
        </mxCell>
        <mxCell id="v_9pLLNJIDL04cYkA-yU-38" value="&lt;b&gt;Interfaz Gráfica&lt;/b&gt;" style="rounded=1;whiteSpace=wrap;html=1;fillColor=none;strokeWidth=2;" vertex="1" parent="v_9pLLNJIDL04cYkA-yU-51">
          <mxGeometry x="21.870000000000005" y="60" width="110" height="60" as="geometry" />
        </mxCell>
        <mxCell id="v_9pLLNJIDL04cYkA-yU-48" value="&lt;font style=&quot;font-size: 13px;&quot;&gt;&lt;b&gt;Frontend&lt;/b&gt;&lt;br&gt;Tkinter&lt;br&gt;&lt;/font&gt;" style="text;html=1;strokeColor=none;fillColor=none;align=center;verticalAlign=middle;whiteSpace=wrap;rounded=0;" vertex="1" parent="v_9pLLNJIDL04cYkA-yU-51">
          <mxGeometry x="116.87" y="20" width="60" height="30" as="geometry" />
        </mxCell>
        <mxCell id="v_9pLLNJIDL04cYkA-yU-49" value="&lt;b&gt;Gráficos de datos&lt;/b&gt;" style="rounded=1;whiteSpace=wrap;html=1;fillColor=none;strokeWidth=2;" vertex="1" parent="v_9pLLNJIDL04cYkA-yU-51">
          <mxGeometry x="166.87" y="60" width="95" height="60" as="geometry" />
        </mxCell>
        <mxCell id="v_9pLLNJIDL04cYkA-yU-53" value="PinGUI" style="text;html=1;strokeColor=none;fillColor=none;align=center;verticalAlign=middle;whiteSpace=wrap;rounded=0;fontStyle=1;fontSize=14;" vertex="1" parent="1">
          <mxGeometry x="374.07" y="245" width="60" height="30" as="geometry" />
        </mxCell>
      </root>
    </mxGraphModel>
  </diagram>
</mxfile>
